HIERARCHY
ROOT Hips
{
	OFFSET -3.958830 18.904000 13.208200
	CHANNELS 6 Xposition Yposition Zposition Zrotation Yrotation Xrotation 
	JOINT LHipJoint
	{
		OFFSET 0.000000 0.000000 0.000000
		CHANNELS 3 Zrotation Yrotation Xrotation
		JOINT LeftUpLeg
		{
			OFFSET 1.800000 -1.400000 0.085000
			CHANNELS 3 Zrotation Yrotation Xrotation
			JOINT LeftLeg
			{
				OFFSET 2.215000 -6.000000 0.000000
				CHANNELS 3 Zrotation Yrotation Xrotation
				JOINT LeftFoot
				{
					OFFSET 2.500000 -6.900000 0.000000
					CHANNELS 3 Zrotation Yrotation Xrotation
					JOINT LeftToeBase
					{
						OFFSET 0.200000 -0.500000 1.950000
						CHANNELS 3 Zrotation Yrotation Xrotation
						End Site
						{
							OFFSET 0.000000 0.000000 0.000000
						}
					}
				}
			}
		}
	}
	JOINT RHipJoint
	{
		OFFSET 0.000000 0.000000 0.000000
		CHANNELS 3 Zrotation Yrotation Xrotation
		JOINT RightUpLeg
		{
			OFFSET -1.800000 -1.400000 0.085000
			CHANNELS 3 Zrotation Yrotation Xrotation
			JOINT RightLeg
			{
				OFFSET -2.215000 -6.000000 0.000000
				CHANNELS 3 Zrotation Yrotation Xrotation
				JOINT RightFoot
				{
					OFFSET -2.500000 -6.900000 0.000000
					CHANNELS 3 Zrotation Yrotation Xrotation
					JOINT RightToeBase
					{
						OFFSET -0.200000 -0.500000 1.950000
						CHANNELS 3 Zrotation Yrotation Xrotation
						End Site
						{
							OFFSET 0.000000 0.000000 0.000000
						}
					}
				}
			}
		}
	}
	JOINT LowerBack
	{
		OFFSET 0.000000 0.000000 0.000000
		CHANNELS 3 Zrotation Yrotation Xrotation
		JOINT Spine
		{
			OFFSET -0.087000 1.940000 -0.288900
			CHANNELS 3 Zrotation Yrotation Xrotation
			JOINT Spine1
			{
				OFFSET 0.000000 1.950000 0.060000
				CHANNELS 3 Zrotation Yrotation Xrotation
				JOINT Neck
				{
					OFFSET 0.000000 0.000000 0.000000
					CHANNELS 3 Zrotation Yrotation Xrotation
					JOINT Neck1
					{
						OFFSET 0.000000 1.600000 0.340000
						CHANNELS 3 Zrotation Yrotation Xrotation
						JOINT Head
						{
							OFFSET 0.000000 1.667000 -0.240000
							CHANNELS 3 Zrotation Yrotation Xrotation
							End Site
							{
								OFFSET 0.000000 0.000000 0.000000
							}
						}
					}
				}
				JOINT LeftShoulder
				{
					OFFSET 0.000000 0.000000 0.000000
					CHANNELS 3 Zrotation Yrotation Xrotation
					JOINT LeftArm
					{
						OFFSET 2.700000 1.550000 -0.730000
						CHANNELS 3 Zrotation Yrotation Xrotation
						JOINT LeftForeArm
						{
							OFFSET 5.450000 0.000000 0.000000
							CHANNELS 3 Zrotation Yrotation Xrotation
							JOINT LeftHand
							{
								OFFSET 3.450000 0.000000 0.000000
								CHANNELS 3 Zrotation Yrotation Xrotation
								JOINT LeftHandIndex1
								{
									OFFSET 0.750000 0.000000 0.000000
									CHANNELS 3 Zrotation Yrotation Xrotation
									End Site
									{
										OFFSET 0.000000 0.000000 0.000000
									}
								}
							}
						}
					}
				}
				JOINT RightShoulder
				{
					OFFSET 0.000000 0.000000 0.000000
					CHANNELS 3 Zrotation Yrotation Xrotation
					JOINT RightArm
					{
						OFFSET -2.700000 1.550000 -0.730000
						CHANNELS 3 Zrotation Yrotation Xrotation
						JOINT RightForeArm
						{
							OFFSET -5.450000 0.000000 0.000000
							CHANNELS 3 Zrotation Yrotation Xrotation
							JOINT RightHand
							{
								OFFSET -3.450000 0.000000 0.000000
								CHANNELS 3 Zrotation Yrotation Xrotation
								JOINT RightHandIndex1
								{
									OFFSET -0.750000 0.000000 0.000000
									CHANNELS 3 Zrotation Yrotation Xrotation
									End Site
									{
										OFFSET 0.000000 0.000000 0.000000
									}
								}
							}
						}
					}
				}
			}
		}
	}
}
MOTION
Frames: 7
Frame Time: 0.016667
-0.276010 17.414590 -1.106030 -1.329324 -3.998870 6.907534 -15.025757 12.616085 2.686290 23.716332 -0.813865 -9.949009 -1.548135 3.914046 2.909558 -1.686773 6.624011 3.048448 -0.078990 -0.831880 -0.579640 18.557141 -10.469311 2.701788 -1.408253 0.939647 -7.298306 9.409862 -5.755237 5.476512 -0.516909 -4.650051 2.959998 0.083330 2.164230 1.128170 -4.155530 -1.131158 -6.846300 14.793442 0.123274 1.897732 -9.162156 0.974861 8.129666 2.286098 -3.872692 -7.995403 -6.404630 6.258718 19.898710 -4.602070 -0.332480 -9.950090 -15.388731 -6.378793 1.876057 4.552984 -0.609744 3.003556 6.539244 -5.563660 -2.616289 -5.110948 2.136119 1.218110 1.213760 -0.388820 0.840680 10.886371 7.707886 5.450218 -3.764960 3.303788 -1.412736 -4.819715 10.945279 -0.383206 1.183892 -1.133247 -1.155040 1.147310 0.778830 0.017290 
-0.271920 17.417040 -1.105660 -1.039806 -3.583120 6.886573 -15.030912 12.613995 2.698713 23.770001 -0.849417 -9.689645 -1.404909 3.857996 2.609806 -1.681235 6.627218 3.041245 -0.059120 -0.809110 -0.576670 18.552320 -10.451087 2.694292 -1.689778 0.907687 -7.170034 9.429729 -5.728408 5.199639 -0.529054 -4.658537 2.949832 0.092550 2.151170 1.133810 -4.143483 -1.170337 -6.852712 14.668606 -0.001605 1.952288 -9.165107 0.872509 8.109163 2.235034 -3.980917 -7.984001 -6.590514 6.312659 19.804506 -4.323260 -0.453180 -10.294450 -15.547474 -6.138760 1.882404 4.907556 -0.035626 3.098605 6.369225 -4.363564 -2.633183 -5.106121 2.152285 1.222770 1.201360 -0.380490 0.844840 11.146768 7.531646 5.458337 -4.520503 2.847996 -1.341267 -4.668636 9.067002 -0.423515 1.211334 -1.137789 -1.142420 1.137650 0.773640 0.020050 
-0.267820 17.421060 -1.107060 -0.800814 -3.124806 6.765587 -15.031917 12.610168 2.715891 23.709733 -0.870169 -9.384690 -1.542760 3.850431 2.346898 -1.661721 6.636744 3.033773 -0.044660 -0.799880 -0.567530 18.550569 -10.430617 2.697099 -1.974880 0.834728 -6.877101 9.613584 -5.733810 4.831581 -0.552471 -4.676387 2.934935 0.086990 2.129520 1.141870 -4.142008 -1.212849 -6.875512 14.675529 -0.171518 2.113620 -9.259811 0.754240 8.041989 2.222640 -4.100072 -8.002897 -6.834518 6.268163 20.030485 -4.046350 -0.603960 -10.690310 -15.688639 -5.986914 1.913341 5.216450 0.444824 3.146582 6.185119 -3.253826 -2.647688 -5.090297 2.164280 1.237220 1.177870 -0.361630 0.846910 11.290081 7.452796 5.492966 -5.243702 2.378630 -1.303025 -4.240991 7.697323 -0.409581 1.241177 -1.133771 -1.126680 1.122960 0.766190 0.021430 
-0.262880 17.422820 -1.107180 -0.817034 -2.825500 6.756618 -15.026151 12.567862 2.740003 23.777281 -0.872231 -9.186744 -2.032519 3.928410 2.179917 -1.636836 6.687055 3.019538 -0.049120 -0.805600 -0.567920 18.561104 -10.412667 2.703836 -2.003868 0.796904 -6.715511 9.911822 -5.755658 4.585028 -0.559429 -4.703234 2.924773 0.080570 2.131040 1.144500 -4.168388 -1.182137 -6.894866 15.038481 -0.240659 2.109926 -9.386345 0.700080 7.995585 2.249127 -4.144802 -8.005172 -6.908947 6.196183 20.094489 -4.075250 -0.670140 -10.480100 -15.808068 -5.835604 1.932382 5.371927 0.732339 3.186042 6.158710 -2.086250 -2.659170 -5.105181 2.161168 1.228480 1.178670 -0.362680 0.845990 11.337128 7.304124 5.505813 -5.686927 2.024113 -1.292145 -4.424494 6.665957 -0.443694 1.264675 -1.136449 -1.120820 1.117910 0.765420 0.025910 
-0.263170 17.421030 -1.110770 -0.697971 -2.634727 6.838278 -15.030685 12.539787 2.756706 23.664162 -0.894012 -9.082125 -2.324270 3.936568 1.931373 -1.626532 6.702202 3.018871 -0.038870 -0.794120 -0.550580 18.560688 -10.406974 2.695333 -2.071841 0.787008 -6.702167 9.698600 -5.685299 4.396435 -0.556664 -4.696914 2.923046 0.088490 2.127450 1.145850 -4.162474 -1.158305 -6.890119 14.913790 -0.166852 1.978874 -9.303968 0.738368 8.108910 2.257911 -4.016666 -7.969592 -6.658015 6.010400 19.960912 -4.253040 -0.720030 -10.322850 -15.925517 -5.757084 1.928437 5.843464 0.820707 3.249357 5.899706 -0.590563 -2.682339 -5.126170 2.155867 1.215230 1.183150 -0.364140 0.844780 11.452076 7.120711 5.493203 -5.909088 1.672666 -1.252901 -4.681140 5.904928 -0.497965 1.280915 -1.150867 -1.115410 1.112930 0.754060 0.025710 
-0.261640 17.414370 -1.115850 -0.572479 -2.456646 7.044093 -15.033910 12.534619 2.724180 23.314350 -0.943422 -9.157184 -2.087258 3.850023 1.820608 -1.652515 6.680491 3.050171 -0.050320 -0.805030 -0.554550 18.559687 -10.423744 2.693456 -2.140296 0.829468 -6.890804 9.622449 -5.639931 4.334189 -0.524798 -4.711932 2.932170 0.103990 2.168700 1.136480 -4.157200 -1.111655 -6.846327 14.742638 -0.030235 1.620932 -9.131732 0.802376 8.331264 2.233020 -3.849619 -7.887862 -6.279500 5.803278 19.414908 -4.641670 -0.839610 -9.463060 -16.051320 -5.712475 1.926688 6.358255 0.927187 3.371725 5.546553 0.734880 -2.724880 -5.187471 2.132415 1.178780 1.226160 -0.405260 0.845280 11.671653 6.929445 5.420966 -6.316891 1.292211 -1.152676 -4.799079 5.286589 -0.585524 1.269418 -1.170574 -1.136920 1.134980 0.761260 0.025090 
-0.256080 17.407400 -1.122690 -0.505210 -2.241387 7.311434 -15.038856 12.501728 2.706780 23.017992 -0.977440 -9.349741 -2.231650 3.820927 1.759837 -1.684827 6.688886 3.055179 -0.058990 -0.805140 -0.574050 18.562026 -10.427897 2.690938 -2.122878 0.886004 -7.111147 9.611470 -5.598827 4.212699 -0.499185 -4.741674 2.923797 0.130340 2.209210 1.149500 -4.155334 -1.046554 -6.804938 14.663829 0.110430 1.178738 -9.035163 0.871759 8.670198 2.258529 -3.609330 -7.817900 -5.762164 5.611886 18.733092 -5.153730 -0.925570 -8.729610 -16.170440 -5.680288 1.932040 6.653351 0.955722 3.469375 5.776248 1.897889 -2.761871 -5.263581 2.127120 1.139370 1.278030 -0.439320 0.848550 11.794917 6.668142 5.351491 -6.381745 0.956481 -1.037643 -5.107091 4.888563 -0.675923 1.245216 -1.204227 -1.149140 1.142550 0.776500 0.029050 
